<svg xmlns="http://www.w3.org/2000/svg" xmlns:xlink="http://www.w3.org/1999/xlink" width="500" zoomAndPan="magnify" viewBox="0 0 375 374.999991" height="500" preserveAspectRatio="xMidYMid meet" version="1.0"><defs><g/></defs><g fill="#2b2b2b" fill-opacity="1"><g transform="translate(77.694874, 278.999982)"><g><path d="M 4.15625 -200.046875 C 4.15625 -204.210938 5.75 -206.988281 8.9375 -208.375 C 12.125 -209.757812 16.078125 -210.453125 20.796875 -210.453125 C 25.785156 -210.453125 31.117188 -210.035156 36.796875 -209.203125 C 42.484375 -208.367188 47.410156 -207.953125 51.578125 -207.953125 C 55.734375 -207.953125 60.648438 -208.367188 66.328125 -209.203125 C 72.015625 -210.035156 77.492188 -210.453125 82.765625 -210.453125 C 87.472656 -210.453125 91.421875 -209.757812 94.609375 -208.375 C 97.804688 -206.988281 99.40625 -204.210938 99.40625 -200.046875 C 99.40625 -196.992188 98.710938 -194.707031 97.328125 -193.1875 C 95.941406 -191.664062 94.273438 -189.722656 92.328125 -187.359375 C 90.390625 -185.003906 88.726562 -181.332031 87.34375 -176.34375 C 85.957031 -171.351562 85.265625 -164.003906 85.265625 -154.296875 L 85.265625 -136 C 85.265625 -129.070312 88.726562 -125.609375 95.65625 -125.609375 L 123.9375 -125.609375 C 130.875 -125.609375 134.34375 -129.070312 134.34375 -136 L 134.34375 -154.296875 C 134.34375 -164.003906 133.644531 -171.351562 132.25 -176.34375 C 130.863281 -181.332031 129.203125 -185.003906 127.265625 -187.359375 C 125.328125 -189.722656 123.664062 -191.664062 122.28125 -193.1875 C 120.894531 -194.707031 120.203125 -196.992188 120.203125 -200.046875 C 120.203125 -204.210938 121.796875 -206.988281 124.984375 -208.375 C 128.171875 -209.757812 132.117188 -210.453125 136.828125 -210.453125 C 141.816406 -210.453125 147.15625 -210.035156 152.84375 -209.203125 C 158.53125 -208.367188 163.453125 -207.953125 167.609375 -207.953125 C 171.765625 -207.953125 176.6875 -208.367188 182.375 -209.203125 C 188.0625 -210.035156 193.535156 -210.453125 198.796875 -210.453125 C 203.515625 -210.453125 207.46875 -209.757812 210.65625 -208.375 C 213.84375 -206.988281 215.4375 -204.210938 215.4375 -200.046875 C 215.4375 -196.992188 214.742188 -194.707031 213.359375 -193.1875 C 211.972656 -191.664062 210.304688 -189.722656 208.359375 -187.359375 C 206.421875 -185.003906 204.757812 -181.332031 203.375 -176.34375 C 201.988281 -171.351562 201.296875 -164.003906 201.296875 -154.296875 L 201.296875 -53.65625 C 201.296875 -43.945312 201.988281 -36.597656 203.375 -31.609375 C 204.757812 -26.617188 206.421875 -22.941406 208.359375 -20.578125 C 210.304688 -18.222656 211.972656 -16.285156 213.359375 -14.765625 C 214.742188 -13.242188 215.4375 -10.957031 215.4375 -7.90625 C 215.4375 -3.738281 213.84375 -0.960938 210.65625 0.421875 C 207.46875 1.804688 203.515625 2.5 198.796875 2.5 C 193.535156 2.5 188.0625 2.082031 182.375 1.25 C 176.6875 0.414062 171.765625 0 167.609375 0 C 163.453125 0 158.53125 0.414062 152.84375 1.25 C 147.15625 2.082031 141.816406 2.5 136.828125 2.5 C 132.117188 2.5 128.171875 1.804688 124.984375 0.421875 C 121.796875 -0.960938 120.203125 -3.738281 120.203125 -7.90625 C 120.203125 -10.957031 120.894531 -13.242188 122.28125 -14.765625 C 123.664062 -16.285156 125.328125 -18.222656 127.265625 -20.578125 C 129.203125 -22.941406 130.863281 -26.617188 132.25 -31.609375 C 133.644531 -36.597656 134.34375 -43.945312 134.34375 -53.65625 L 134.34375 -93.15625 C 134.34375 -100.09375 130.875 -103.5625 123.9375 -103.5625 L 95.65625 -103.5625 C 88.726562 -103.5625 85.265625 -100.09375 85.265625 -93.15625 L 85.265625 -53.65625 C 85.265625 -43.945312 85.957031 -36.597656 87.34375 -31.609375 C 88.726562 -26.617188 90.390625 -22.941406 92.328125 -20.578125 C 94.273438 -18.222656 95.941406 -16.285156 97.328125 -14.765625 C 98.710938 -13.242188 99.40625 -10.957031 99.40625 -7.90625 C 99.40625 -3.738281 97.804688 -0.960938 94.609375 0.421875 C 91.421875 1.804688 87.472656 2.5 82.765625 2.5 C 77.492188 2.5 72.015625 2.082031 66.328125 1.25 C 60.648438 0.414062 55.734375 0 51.578125 0 C 47.410156 0 42.484375 0.414062 36.796875 1.25 C 31.117188 2.082031 25.785156 2.5 20.796875 2.5 C 16.078125 2.5 12.125 1.804688 8.9375 0.421875 C 5.75 -0.960938 4.15625 -3.738281 4.15625 -7.90625 C 4.15625 -10.957031 4.847656 -13.242188 6.234375 -14.765625 C 7.617188 -16.285156 9.28125 -18.222656 11.21875 -20.578125 C 13.164062 -22.941406 14.832031 -26.617188 16.21875 -31.609375 C 17.601562 -36.597656 18.296875 -43.945312 18.296875 -53.65625 L 18.296875 -154.296875 C 18.296875 -164.003906 17.601562 -171.351562 16.21875 -176.34375 C 14.832031 -181.332031 13.164062 -185.003906 11.21875 -187.359375 C 9.28125 -189.722656 7.617188 -191.664062 6.234375 -193.1875 C 4.847656 -194.707031 4.15625 -196.992188 4.15625 -200.046875 Z M 4.15625 -200.046875 "/></g></g></g></svg>